PathFileType	4	(X/Y/Z)	C:\Users\°ÂÌØÂü\Desktop\20210112\bx_n_10_901-Unnamed.trc
DataRate	CameraRate	NumFrames	NumMarkers	Units	OrigDataRate	OrigDataStartFrame	OrigNumFrames
50.00	50.00	       8	0	mm	50.00	1	       518
Frame#	Time	
		

1	0.000	-650.50385	135.73518	1844.38916	-710.78961	297.05112	1520.79932	-591.45264	113.87398	1351.23865	-570.51208	-1.22764	1054.10925	-635.75189	-68.76635	871.35461	-564.93292	217.68040	813.78668	-675.90613	273.54593	742.74506	-676.16101	79.36241	574.21680	-707.26385	253.66971	642.38208	-711.76202	248.90376	576.28058	-660.55609	207.05547	532.41846	-754.21649	259.43140	503.50833	-517.18890	-72.39316	143.16502	-546.26929	-31.25552	163.63135	-711.63702	75.72609	215.80930	-788.65082	46.32367	174.46089	-594.82422	25.81768	166.21449	-668.32385	56.22815	156.35127	-710.11591	152.62096	216.21104	-794.22839	177.90120	183.42009	-765.39386	227.04831	205.45813	-590.17676	219.02016	173.53946	-882.44348	296.09494	144.68474	-554.07361	256.74615	164.06377	-658.74200	298.01193	158.27779	-622.81128	306.79514	158.97676	-527.91608	304.27734	146.74899	-690.03351	-29.61673	616.49066	-682.23279	-63.89064	1537.35486	-745.88654	-38.32701	490.19968	-754.64246	-13.30501	207.78333	-875.97473	-78.84007	141.37231	-660.85040	-55.75199	757.50269							-699.82941	-26.42778	568.64789	-673.61688	171.44363	157.20950	-607.28876	-74.53147	158.38834	-648.59723	-66.05529	163.29210	-648.86017	22.72688	518.65002	-584.04987	248.12918	1065.53210	-666.35779	289.95908	872.59906	-674.22833	145.91576	575.91296	-777.16321	96.77480	1049.18311	-562.61761	-0.03766	802.70795	
2	0.020	-650.36353	135.83501	1844.47192	-710.76538	297.08649	1520.85010	-591.58929	113.98422	1351.21277	-570.70258	-1.03959	1054.14160	-635.84552	-68.76319	871.19543	-565.03021	217.51645	813.86230	-675.90613	273.54593	742.74506	-676.40973	79.54739	574.20795	-707.32654	253.24161	642.04523	-697.10901	264.12329	591.20447	-660.55145	207.02785	532.45508	-754.33447	259.12909	503.63199	-517.13074	-72.23754	143.20644	-546.28961	-31.36257	163.75104	-711.67358	75.81687	215.68320	-788.58087	46.34725	174.32510	-594.99915	25.78988	165.97650	-668.54767	56.41538	156.53893	-710.02124	152.69955	216.15842	-794.22839	177.90120	183.42009	-765.40796	226.95947	205.49370	-589.85760	218.86540	173.70648	-882.48578	296.13718	144.66689	-553.83600	256.98080	164.05768	-658.73834	298.01740	158.37097	-622.88013	306.87027	158.92485	-527.91608	304.27734	146.74899	-690.03351	-29.61673	616.49066	-682.15826	-63.90683	1537.22119	-746.05365	-38.31385	490.31039	-754.73981	-13.21719	208.01540	-875.95648	-78.79716	141.44162	-660.99915	-56.07497	757.65503							-699.76489	-26.66266	568.69269	-673.35394	171.68051	157.31856	-607.18127	-74.73121	158.69212	-648.49268	-65.93705	163.47635	-648.76776	22.71640	518.61682	-584.04987	248.12918	1065.53210	-666.73047	289.55408	872.27203	-674.61530	146.19528	575.86023	-777.39496	96.81498	1049.32703	-562.88232	0.00908	802.59210	
3	0.040	-650.03510	135.67020	1844.49426	-710.56659	296.95715	1520.91309	-591.61761	113.90587	1351.04529	-570.92255	-0.99982	1054.15515	-635.81702	-68.84397	871.23193	-565.20129	217.62999	813.74951	-676.11877	273.27097	742.70178	-676.40973	79.54739	574.20795	-707.42310	253.43896	641.98944	-697.02228	264.01407	591.24268	-660.84766	207.10847	532.49194	-754.42657	259.42612	503.74313	-517.26044	-72.25079	142.98801	-546.33179	-31.50969	163.95245	-711.51636	75.80072	215.65369	-788.65082	46.32367	174.46089	-594.72473	25.82309	166.00473	-668.34528	56.26418	156.34036	-709.78790	152.67493	216.22099	-794.36786	177.89789	183.55849	-765.46271	227.12230	205.43341	-590.18787	218.82275	173.42851	-882.40680	296.07779	144.65472	-553.81012	257.08286	164.08847	-658.79657	298.08340	158.39246	-622.76221	306.87595	158.88629	-527.99078	304.21622	146.57008	-690.13452	-29.63090	616.59814	-682.07599	-64.00198	1537.24377	-746.04010	-38.26268	490.11145	-754.81213	-13.35109	208.03360	-876.09723	-78.65971	141.48227	-660.99915	-56.07497	757.65503							-699.75433	-26.62583	568.81897	-673.35913	171.62714	157.39241	-607.27417	-74.79271	158.46112	-648.66644	-66.10685	163.37721	-648.79022	22.76769	518.57086	-584.15228	248.03889	1065.59619	-666.77136	289.65393	872.48505	-674.32385	145.98930	575.59058	-777.60284	96.94797	1049.43433	-563.07574	-0.04492	802.97552	
4	0.060	-649.71460	135.60928	1844.54211	-710.41272	297.10760	1521.03235	-591.60657	113.86197	1351.27734	-571.12347	-1.05366	1054.11401	-636.30823	-68.50321	871.02856	-565.23920	217.46040	813.70087	-676.36938	273.34448	742.69757	-676.35675	79.33305	574.40027	-707.47546	253.38855	642.08453	-711.77191	248.96550	576.19647	-660.73932	207.16438	532.56305	-754.46033	259.31448	503.61185	-517.12921	-72.12981	143.04086	-546.35651	-31.40145	163.86209	-711.46973	75.71613	215.76685	-788.60065	46.38261	174.46782	-594.76898	25.87164	166.12155	-668.21564	56.18544	156.69029	-709.94647	152.63403	216.04845	-794.23334	177.97929	183.50862	-765.54712	226.92268	205.36253	-590.07678	218.74840	173.49521	-882.53021	296.19693	144.72672	-553.92950	256.86429	164.10020	-658.68384	297.94595	158.25630	-622.76892	306.84137	158.86250	-528.03583	304.25760	146.54501	-690.21991	-29.69843	616.80310	-681.92651	-64.01089	1537.27979	-746.12842	-38.32294	490.22260	-754.80664	-13.14469	208.02600	-875.99792	-78.69180	141.55168	-661.13611	-55.96375	757.49750							-700.04382	-26.43108	568.66309	-673.43121	171.53181	157.27834	-607.19159	-74.60983	158.55728	-648.69385	-66.09259	163.14258	-649.12079	22.82471	518.51031	-584.51172	248.15607	1065.33057	-666.90930	289.73587	872.53754	-674.79510	146.18715	575.69983	-777.78320	97.05273	1049.39209	-563.20428	-0.00620	802.73718	
5	0.080	-649.14246	135.62985	1844.51794	-710.20459	296.93143	1521.02673	-591.45264	113.87398	1351.23865	-571.42743	-0.95912	1054.11096	-636.51361	-68.71978	871.24091	-565.22321	217.57861	813.82782	-676.66217	273.29709	742.52087	-676.80945	79.42619	574.27222	-707.96765	253.47478	642.14758	-711.89728	249.00635	576.33789	-660.73596	206.94765	532.69012	-754.72534	259.14713	503.60162	-517.13074	-72.23754	143.20644	-546.25861	-31.48308	163.84277	-711.51636	75.80072	215.65369	-788.57745	46.48917	174.16803	-594.81067	25.79419	165.87895	-668.42493	56.18982	156.63142	-709.84943	152.63850	216.12706	-794.23334	177.97929	183.50862	-765.43225	226.98172	205.37273	-590.08057	218.85408	173.67912	-882.45593	296.22400	144.77756	-553.91455	257.00867	164.19333	-658.61316	298.06125	158.37923	-622.76221	306.87595	158.88629	-527.87262	304.37918	146.63361	-690.13452	-29.63090	616.59814	-681.67578	-64.03730	1537.24854	-746.20007	-38.39744	490.23175	-754.73981	-13.21719	208.01540	-875.85034	-78.68372	141.27127	-661.32507	-55.97204	757.57898							-700.05231	-26.62403	568.78833	-673.24078	171.40724	157.26741	-607.19489	-74.69566	158.52786	-648.66577	-66.04192	163.20358	-649.12079	22.82471	518.51031	-584.54419	248.20624	1065.47595	-666.98749	289.72675	872.64880	-674.92975	145.99393	575.55438	-777.94397	97.14880	1049.46558	-563.51495	-0.09595	802.94977	
6	0.100	-648.63641	135.50485	1844.38049	-709.98535	296.88583	1521.12012	-591.42053	113.88367	1351.16113	-571.86621	-1.04538	1054.15808	-637.03516	-68.99188	871.52051	-565.49817	217.59172	813.89648	-676.69867	273.39517	742.71820	-676.80396	79.31487	574.33997	-708.15564	253.32756	642.11377				-660.87897	207.08961	532.60358	-754.73511	259.20837	503.50931	-517.13074	-72.23754	143.20644	-546.39508	-31.27549	163.87573	-711.39325	75.72005	215.51222	-788.57788	46.40474	174.25711	-594.85614	25.70553	166.19505	-668.22040	56.16831	156.44604	-709.93854	152.66675	216.21751	-794.30695	177.99718	183.44695	-765.60626	227.07927	205.49844	-589.90833	219.00833	173.61092	-882.56537	296.31970	144.85590	-553.80341	256.92444	164.24765	-658.77289	298.09003	158.38429	-622.63953	306.82755	159.03638	-527.90778	304.36624	146.72336	-690.21991	-29.69843	616.80310	-681.34985	-63.92037	1537.19812	-746.28979	-38.34834	490.18784	-754.88574	-13.52077	208.03604	-875.95648	-78.79716	141.44162	-661.43201	-56.29813	757.67639	-711.90717	249.06808	576.25372				-700.11267	-26.43322	568.55164	-673.49701	171.20509	157.44232	-607.19159	-74.60983	158.55728	-648.67139	-65.97536	163.43892	-649.27710	22.76341	518.45654	-584.79254	248.23196	1065.48718	-667.17108	289.54276	872.47003	-674.79510	146.18715	575.69983	-778.57562	97.46033	1049.46118	-563.81116	-0.01592	802.89825	
7	0.120	-647.90387	135.18149	1844.52014	-709.62738	296.99261	1521.33289	-591.42053	113.88367	1351.16113	-572.01263	-1.28248	1054.19373	-637.18726	-68.82053	871.37891	-565.68536	217.68208	813.88849	-676.85132	273.44250	742.92999	-676.80396	79.31487	574.33997	-708.23822	253.20872	641.94110				-660.85406	206.93158	532.75354	-755.13220	259.13507	503.60522	-517.13074	-72.23754	143.20644	-546.27698	-31.49862	164.03638	-711.39325	75.72005	215.51222	-788.56903	46.41818	174.26611	-594.86383	25.75578	166.04781	-668.08575	55.97841	156.96193	-709.75110	152.80327	216.26134	-794.24756	177.85464	183.34789	-765.43225	226.98172	205.37273	-589.97510	219.00389	173.57054	-882.48456	296.10822	144.64120	-553.74133	257.04910	164.21144	-658.66241	297.87289	158.33510	-622.82520	306.66315	158.95436	-528.02759	304.34650	146.51938	-690.29944	-29.60703	616.78400	-681.13708	-63.98102	1537.19336	-746.27991	-38.19043	490.21100	-754.85944	-13.18526	207.84674	-875.99792	-78.69180	141.55168	-661.72729	-56.18876	757.50439	-712.29565	249.07793	575.96454				-700.41742	-26.49778	568.63666	-673.29596	171.57469	157.33905	-607.14709	-74.65978	158.59761	-648.73505	-66.09348	163.28870	-649.36884	22.85504	518.45026	-584.88232	248.20329	1065.48242	-667.47595	289.36710	872.40015	-675.39734	145.78777	575.44220	-778.70557	97.39712	1049.50525	-564.13684	0.25755	803.28198	
8	0.140	-647.09369	135.27609	1844.42078	-709.34705	296.98785	1521.41211	-591.51581	113.77602	1351.01758	-572.42999	-1.22239	1054.34033	-637.18726	-68.82053	871.37891	-565.82666	217.70557	813.91864	-677.15350	273.37418	743.02020	-676.60693	79.62083	574.33398	-708.37274	253.15694	642.10760				-661.02710	206.99124	532.89069	-755.24115	259.24875	503.30771	-517.18890	-72.39316	143.16502	-546.39508	-31.27549	163.87573	-711.46973	75.71613	215.76685	-788.53430	46.42464	174.22391	-594.83783	25.86584	166.08801	-668.54004	56.31819	156.67703	-709.78790	152.67493	216.22099	-794.20551	177.92485	183.29315	-765.54425	227.00352	205.43832	-590.12207	218.95122	173.66287	-882.54730	296.17606	144.64073	-553.98572	256.88681	164.04729	-658.68384	297.94595	158.25630	-622.70673	306.85999	158.79558	-528.02759	304.34650	146.51938	-690.47919	-29.60189	616.64722	-680.77240	-64.07170	1537.25525	-746.42126	-38.35217	490.09030	-754.79895	-13.22253	207.94054	-875.99792	-78.69180	141.55168	-662.09467	-56.42801	757.66638	-712.52887	248.99391	576.23560				-700.47736	-26.35122	568.71143	-673.35913	171.62714	157.39241	-607.18457	-74.81704	158.66270	-648.59723	-66.05529	163.29210	-649.43628	22.98244	518.30096	-585.08612	247.98059	1065.63159	-667.83801	289.62192	872.35077	-675.78186	145.92807	575.96240	-778.89990	97.27826	1049.48901	-564.64178	0.11884	802.91962	
